<svg xmlns="http://www.w3.org/2000/svg" viewBox="0 0 245.01 245.01"><defs><style>.cls-1{fill:#c7b299;}.cls-2{fill:#9d1b4c;}.cls-3{fill:#1d1315;}</style></defs><title>dawnm-brand_1</title><g id="Layer_2" data-name="Layer 2"><g id="Me"><path class="cls-1" d="M65.34,115.82l.06.07a.46.46,0,0,1-.07.07s-.06,0-.06-.07S65.31,115.84,65.34,115.82Z"/><path class="cls-1" d="M67.27,121.64a.18.18,0,0,1,.1,0s0,.05,0,.08l-.07.05Z"/><path class="cls-1" d="M68.2,121.9c0-.77.67-1.19,1.14-1.81C69.64,121.19,68.76,121.45,68.2,121.9Z"/><path class="cls-1" d="M70.05,116.15c0,1-.62,1.86-.8,3C68.57,117.61,68.67,117.28,70.05,116.15Z"/><path class="cls-1" d="M71.09,108c-.84,1-1.71,2.05-2.48,3.14-.44.63-1.3.24-1.59.89-.41-.11-.43-.33-.27-.54a24.42,24.42,0,0,1,3.82-4c.17-.15.41-.28.61-.06S71.25,107.79,71.09,108Z"/><polygon class="cls-1" points="74.37 166.43 74.41 166.37 74.44 166.44 74.37 166.43"/><path class="cls-1" d="M77.91,166.22c0,.46-.29.4-.52.24-.57-.41-1.1-.86-1.71-1.34C76.53,164.86,77.85,165.55,77.91,166.22Z"/><path class="cls-1" d="M83,165.35c.62-.21.92.39,1.21.62,1,.75,2.23,0,3.09.8a4.1,4.1,0,0,0,.37.27C86.24,167.61,84,166.76,83,165.35Z"/><path class="cls-1" d="M92.57,170.26a.93.93,0,0,0-.62.27c-.91.93-2,.81-3.21.89s-1.9-.76-2.85-1.1c-.27-.1-.42-.94-.36-1.41s.65-.32,1-.26a8.43,8.43,0,0,0,2.74-.26.75.75,0,0,0,.69-.67c0-.41-.43-.36-.61-.55-.74-.78-1.91-1-2.83-2.06,1.95.51,3.65.56,5.2,1.32a3.83,3.83,0,0,1,1.77,2.43C93.69,169.48,93.69,170.31,92.57,170.26Z"/><path class="cls-1" d="M103.79,110.33c-.27,0-.61.09-.62-.29s.34-.33.6-.33h.92a10.14,10.14,0,0,1,6.07,2.1c.19.14.39.33.23.57s-.32.08-.5,0c-.9-.46-1.64-1.08-2.89-.9-.61.09-1.61-.61-2.48-.84A10.18,10.18,0,0,0,103.79,110.33Z"/><path class="cls-1" d="M111.7,113.14c0-.11.19-.21.31-.26s.15.09.22.13c0,.21-.11.32-.26.35S111.65,113.31,111.7,113.14Z"/><path class="cls-1" d="M91.47,116.53c-.21.66.65,1.69,1.31,1.55,1.13-.25,2.35-.08,3.37-1,.48-.42,1.39-.32,2.09-.52a10.08,10.08,0,0,1,5,0,8.81,8.81,0,0,0,2.35-.09,8.94,8.94,0,0,1,2.83,0,15.42,15.42,0,0,0,4.22.32c.71,0,1-.41.71-1.18s-1.43-1.58-.27-2.59a2.71,2.71,0,0,0-.66-1c-2-1.68-4.14-3-7-3a17.13,17.13,0,0,0-6.58,1.14,2.89,2.89,0,0,1-2.15.08,2,2,0,0,1-1.12-2.68c.44-1.43,1.55-1.44,2.59-1.49a36.44,36.44,0,0,1,12.13,1.31,21.37,21.37,0,0,1,7.12,3.37,4.56,4.56,0,0,1,1.62,5.54c-.28.71-.52,1.44-.82,2.14a10.07,10.07,0,0,1-5.87,5.39,15,15,0,0,1-5.13.62,42.48,42.48,0,0,1-14.92-2.11,11.36,11.36,0,0,1-4.89-3,5.23,5.23,0,0,1-1.24-4.16c.35.84.6,1.47.87,2.08.19.46.61,1,1,.66s1.32.12,1.29-1c0-.5.76-1,1.23-1.52.19-.19.42.06.58.22A.7.7,0,0,1,91.47,116.53Z"/><path class="cls-1" d="M142.34,62.35c-.45.08-.61-.33-.51-.68a.87.87,0,0,1,.62-.7,4.29,4.29,0,0,1,2.67,2.67c0,.22-.1.44-.32.28-.41-.29-.49-.08-.62.26s-.21.56-.54.51-.24-.37-.31-.58a6.34,6.34,0,0,1-.38-1.19C142.88,62.54,142.89,62.26,142.34,62.35Z"/><path class="cls-1" d="M140.49,70.39a3.5,3.5,0,0,0,2.4.47,4.29,4.29,0,0,1,2.5.76c.67.42.87.93.15,1.56a4.34,4.34,0,0,1,1.54,1.19c1.34,1.43,2.81,2.74,4.24,4.09.45.43.21,1.11.7,1.57,1.81,1.74,2.48,4.1,3.42,6.33.74,1.75.87,3.69,2,5.34a5.19,5.19,0,0,1,.65,2.32,40.38,40.38,0,0,0,1.28,6.66c.6,2.86.69,5.79,1.06,8.68.1.82-.26.7-.94.7a15.54,15.54,0,0,1-3.36-.86,40.62,40.62,0,0,0-6.41-1.32,46.82,46.82,0,0,0-5.58-.62,31.72,31.72,0,0,0-9.69,1.43C130,110,129.58,110.07,127,111c-1.94.67-3.52-.08-5.25-.39-.59-.1-1.12-.47-1.77-.16a.77.77,0,0,1-.78-.07c-1.38-1.2-3.16-1.66-4.77-2.37a38.67,38.67,0,0,0-14-3c-1,0-2-.14-3.3-.22.79-.68,1.13-1.41,1.9-1.83a4.28,4.28,0,0,0,2-2.43,5.78,5.78,0,0,1,2-2.28,27.51,27.51,0,0,0,3.56-3.76,2.12,2.12,0,0,0,.29-.74A10.13,10.13,0,0,1,111,88.63a12.09,12.09,0,0,0,3.76-3.74,3.22,3.22,0,0,1,1.52-1.34A4,4,0,0,0,118,81.64a5.13,5.13,0,0,1,2.52-2.51,6.86,6.86,0,0,0,2.57-2.56,2.72,2.72,0,0,1,1.11-1.07,2.7,2.7,0,0,0,1.15-1.07,21.51,21.51,0,0,1,3.81-3.57,3.11,3.11,0,0,1,1.55-.66c1.88-.2,3.66-.94,5.64-.63C137.75,69.79,139.23,69.51,140.49,70.39Z"/><path class="cls-1" d="M164.73,126.69a2.93,2.93,0,0,1,0-2.25A4.81,4.81,0,0,1,164.73,126.69Z"/><path class="cls-1" d="M245,0V245H230.79s1.57-13.47,0-17.58c-1.76-4.63-9.94-12.22-16.3-13.73a8.66,8.66,0,0,1-1.61-2.39c-1.76-3.66-4.92-5.61-8.4-7.36-4.16-2.09-8.65-2.89-13.06-4-1.93-.51-3.92,0-5.88-.1-.76,0-1.25-.19-1.48-.95a20,20,0,0,1-1-3.53,5,5,0,0,1,.73-2.53,25.09,25.09,0,0,0,1.82-6.75,5.16,5.16,0,0,0-.74-3.33,12.18,12.18,0,0,0-8.32-6.47,91.79,91.79,0,0,0-9.43-1.57c-3.79-.51-7.65-.57-11.48-.8a29.87,29.87,0,0,0-4-.24,1.23,1.23,0,0,1-.67-.12c-1.37-.64-1.58-.57-1.84.85-.54,2.95-1.24,5.87-1.58,8.86a10.72,10.72,0,0,0,.62,4.89,22.32,22.32,0,0,1,.77,4.61,27.47,27.47,0,0,1,.38,5.25,28.61,28.61,0,0,1-.09,4.72,3.22,3.22,0,0,1-.86,2c-.75.65-.64,1.68-1.12,2.46a14.71,14.71,0,0,0-2.17,5.39c-.4,2.59-2.5,2.89-4.06,3.9-1.76,1.14-3.6,2.18-5.27,3.44-2,1.5-4.37,2.07-6.61,3a42.6,42.6,0,0,1-12,3,20.3,20.3,0,0,1-9.55-1.11,12.63,12.63,0,0,1-2.61-2c-1.76-1.26-3.32-2.8-5.16-4a7.82,7.82,0,0,0-2-1.2c-1.31-.39-1.3-1.67-1.67-2.62-.82-2.12-1.65-4.24-2.49-6.34a28,28,0,0,0-1.23-2.52c-.31-.59-.07-.69.46-.59a10.47,10.47,0,0,1,1.12.19c.44.15.94.49,1.27,0a1.62,1.62,0,0,0,.16-1.54,9.75,9.75,0,0,1-.75-2.15,9.18,9.18,0,0,1,.45-4.62c0-.14.11-.34,0-.44-.92-1.69,0-3.49-.32-5.25a9.56,9.56,0,0,1,.39-5.38.87.87,0,0,0-.46-1.26.68.68,0,0,1-.42-.93c1.12-4.28.38-8.59.3-12.89,0-.45-.22-1,.45-1.28s1,.1,1.49.51c1.44,1.31,2.63,2.9,4.39,3.85a3.88,3.88,0,0,1,1.27,1.31,30.8,30.8,0,0,0,4.9,5c1.53,1.39,3.37,1.77,5.2,2.35a6.82,6.82,0,0,1,2.57,2.07,9.65,9.65,0,0,0,3.48,2.79,1.24,1.24,0,0,0,1.21,0,2.26,2.26,0,0,1,2.85.49,1.06,1.06,0,0,0,1.34.47,6.51,6.51,0,0,1,2.49.16,3.19,3.19,0,0,0,2.28-.57c.88-.59,2.1-.74,2.62-1.84a1.25,1.25,0,0,1,.71-.56c1.81-.69,3.38-1.89,5.3-2.31.23-.05.49-.07.57-.33.4-1.16,2.09-1.26,2.18-2.67,2.14-.8,2.76-3,4.07-4.53.48-.56,1-1.09,1.47-1.62,1-1.11,2.14-2.17,3.2-3.27.18-.19.58-.4.29-.75a.63.63,0,0,0-.77-.05c-1.72,1-16.11,8-18,9a14.58,14.58,0,0,1-7,1.55,8.91,8.91,0,0,1-2.86-.46,1.32,1.32,0,0,0-.56-.05c-2,.25-22-10.11-23.12-11.81a1.09,1.09,0,0,0-.57-.38,2,2,0,0,1-1.64-1.6c-.21-.8-1.25-1.41-2.1-1.86a1.44,1.44,0,0,1-.79-.88c-.49-1.35-1.54-2.37-2.22-3.62a32,32,0,0,1-3.22-9.31s0-.08,0-.12c-.19-1.77-.18-1.76,1.52-2.24.42-.12,1-.2.88-.84s-.63-.64-1.14-.48c-1,.3-1.47-.22-1.78-1.08a25,25,0,0,1-.73-4.19c-.38-2-.93-4-1.36-5.94a23.09,23.09,0,0,1-.33-9.17c.39-2,1-4.16,2.9-5.47.25-.17.45-.65.85-.22,1.19,1.29,2.86,1.64,4.41,2.08a58.73,58.73,0,0,0,19.25,1.86,9.84,9.84,0,0,0,8-4.59c1.09-1.68,2.22-3.32,3.17-5.08a3.05,3.05,0,0,1,2.83-1.48,2.56,2.56,0,0,1,2.62,1.5c.61,1.41,1.36,2.75,2.05,4.12,1.64,3.25,4.09,5.56,7.75,6.21a37.64,37.64,0,0,0,8.12,1,3.41,3.41,0,0,0,.51-.12,97.21,97.21,0,0,1-10.92-2.52c-.88-.26-1.19-.9-1.72-1.39a11.82,11.82,0,0,1-3.52-7.47c-.36-2.69,1.09-4.62,4.6-5.78a32.07,32.07,0,0,1,13.84-1.11,30.3,30.3,0,0,1,12.3,3.66c2.05,1.21,2.21,1.53,2,3.88a13,13,0,0,1-1.77,6.16,9.41,9.41,0,0,1-8.22,4.39,15.45,15.45,0,0,0-3.78.24c.08.28.34.29.55.29,3.31.07,6.62,0,9.79-1.17a6.74,6.74,0,0,0,3.13-2.47c.18-.27.4-.54.72-.45s.21.46.24.71c.25,2.33.58,4.67.65,7,0,.61.07,1.21.11,2a2.9,2.9,0,0,0,1.4-2.52,46.89,46.89,0,0,1,1.27-8.52c.66.14.82.87,1.44,1a1.49,1.49,0,0,0,.14-1.45,2.44,2.44,0,0,1,.62-2.84c.72-.76.88-2,2.16-2.32.19,0,.06-.34.06-.52.06-3-.14-5.89.15-8.85a10.94,10.94,0,0,0-.55-5.87c-.28-.62.28-1.2.39-1.79s-.15-1.3.07-1.92a.29.29,0,0,0,0-.22,5.31,5.31,0,0,1-1.41-2.79,26.82,26.82,0,0,0-1.19-4.32c-.16-.66-.92-1.3,0-2,0,0,0-.2-.07-.26-.67-.67-.47-1.5-.39-2.29,0-.4.21-.79-.5-.64-.4.09-.45-.3-.54-.6-.14-.47-.31-.92-.48-1.39-.47.23-.13.65-.41.86,0,0-.14,0-.16-.06a11.91,11.91,0,0,1-1-2.59c-.08-.39-.14-1-.58-.16-.36-.21-.9-.21-.93-.81-.06-1.73-1.25-2.84-2.11-4.19-.64-1-1.65-1.61-2.23-2.66a6.21,6.21,0,0,0-3.2-2.78,4.49,4.49,0,0,1,3.33,1.47c.21.21.43.6.73.32s-.12-.47-.3-.69c-.36-.44-.64-1-1-1.37a2.3,2.3,0,0,0-2.27-1c-.89.17-1.75-.76-2.73-.28,0,0-.15-.08-.15-.13-.17-1.16-.89-.61-1.43-.44-.34-.33,0-.51.08-.74s-.16-.69-.34-.52c-1,.85-1.43-.58-2.22-.4-.24,0-.52-.12-.79-.13-.47,0-1.25.48-.78-.7a1.43,1.43,0,0,0-1-1.14c-.74-.1-1.15.07-.91-1.13s-1-1.94-2-2.58a8.1,8.1,0,0,0-4.14-1c-1.69,0-3.25-1-5-.8-.5-1.3-1.51-.13-2.22-.45-.2-.09-.52,0-.67-.1-1.11-.9-2.38-.48-3.61-.55a9.28,9.28,0,0,1-2.51-.31,11,11,0,0,0-5.66,0c-.89.18-2-.3-2.68.67-.12.16-.32-.11-.48-.21a1.39,1.39,0,0,0-1.53.12,57.58,57.58,0,0,1-6.46,3.16c-1.55.74-3.14,1.35-4.73,1.93A28.76,28.76,0,0,1,98.2,65a14.85,14.85,0,0,0-1.55.42c-.37.09-.75.25-1.05-.16a14.9,14.9,0,0,0-8.5,4.45c0,.5-.2.75-.71.71a3,3,0,0,1-.65,1.29c.71,1-.21,1.75-.66,2.17a4.07,4.07,0,0,0-1.3,2c-.13.49-.49.62-.82.85l-.47.76c.43,1.8-.4,3.43-.89,5-.71,2.36-1.42,4.75-2.36,7A18.07,18.07,0,0,1,77.4,93.4c-.92,1.31-1.58,2.76-3.07,3.55,0,1.21-1.18,1.4-1.82,1.67-1,.42-1.57,1.29-2.48,1.76-.5.25-.75,1-1.4,1.32-.2.1-.39.35-.58.35-1.29,0-1.45.5-.71,1.45.6-.09,1.1-.71,1.8-.21.26.18.46-.18.67-.34A6.68,6.68,0,0,1,73,101.48c-.83,1.42-2.11,2.19-3.07,3.21.4.48.77-.12,1.29.2-.7.66-1.11,1.55-2.14,1.79-.32.07-.62.1-.54.54.28.13.57.24.17.62-1.37,1.28-1.75,3.28-3.22,4.5a.86.86,0,0,0-.13.14c1.13,1-.14,1.54-.41,2.29-.16.43-.82.93.11,1.36.19.09.26.89.09,1.16-.49.76-.66,1.74-1.51,2.25l-.46.64.45,1.88c.3-1.66,1.57-2.52,2.07-3.82.08-.19.2-.36.43-.3s.21.29.28.47c.22.64-.28,1.16-.28,1.8.42,0,.82,0,1-.53.13-.34.44-.21.67-.05s.16.41,0,.67c-.4.61-1.29.76-1.45,1.61.28.37.76.09,1.14.27.07.55-.38.68-.72.91s-.43.39-.19.66.42,0,.6-.12.16-.16.25-.23c1.19-1,1.22-1,2,.56.3-1.6.59-3,1.81-4.18-.1,2.78.26,5.56-1.57,7.89a25.48,25.48,0,0,1-1.53,2.25c-.8.84.56.52.72,1.1-1.14.16-1.46,1.29-2.24,1.9s-.23,1.15.08,1.22c1.61.38.58.89.07,1.35a1.06,1.06,0,0,0,.24.15c.39.16.93-.48,1.14,0s-.55.72-.83,1.1c-.66.9-1.81,1.17-2.5,2,0,0-.72.22,0,.49.37.15,0,.33-.21.41s-.66,0-.54.4.55.29.8.19a28.72,28.72,0,0,0,3.4-1.11,3.22,3.22,0,0,1,.62-.11,1.78,1.78,0,0,0-.44,1.67c.19.52-.37.71-.61,1s-.58.77-.06,1c.78.4.61,1.25,1,1.79a.37.37,0,0,1-.08.6c-1,.46-.83,1.5-1.26,2.23-.06.1-.14.28-.1.32.87.94-.08,2.3.77,3.23a.57.57,0,0,1,.1.54c-.3,2.19.35,4.23.87,6.3.32,1.29.66,2.59,1.07,3.82.92,2.76,1.89,5.54,4.6,7.27,1.51,1,3.25,1.52,4.68,2.63.23.18.8.59,1.06,0s-.22-.71-.66-.85a7.59,7.59,0,0,1-3.94-2.28.93.93,0,0,0-.39-.22c-.85-.35-.85-.35-.64-1.42a18.33,18.33,0,0,0,5.45,2.55,3.85,3.85,0,0,0,2,.23c.9-.15,1.43.74,2.13,1.14a24.29,24.29,0,0,0,3,1.48c.31.13.62.25.6.59s-.47.29-.73.29a35.11,35.11,0,0,0-6.55.36A8.43,8.43,0,0,0,77.38,175c-2.5,1.92-5.27,3.44-7.75,5.35-2.81,2.17-5.78,4.33-7,8,0,0,0,.07,0,.1.56,3.19-2.24,5-3.07,7.67a17.76,17.76,0,0,1-.9,2.46c-.78,1.62-2.27,2.09-3.79,2.47a45.85,45.85,0,0,1-9.71,1.07c-.1,0-.21-.08-.31-.12l-2.15.25c-.3.4-.7.31-1.09.21l-.45.09a.76.76,0,0,1-.95.13l-.43.1a8.5,8.5,0,0,1-3.46,1.16c-.37.42-.93.37-1.4.55a3,3,0,0,1-1.81,1.1l-1.07.79c0,.37-.2.59-.61.54a30.44,30.44,0,0,1-8.76,6.46v.39c-3,2.44-5.54,6.38-6.49,12.73-2.76,18.37,0,18.57,0,18.57H0V0Z"/><g id="author-face"><path class="cls-2" d="M118.35,145.93c1.2-.14,2.27.58,3.37,1.07a2.46,2.46,0,0,0,2.32.09c2.76-1.47,5.37-.81,8.06.3a52.2,52.2,0,0,0,7,2c.46.13,1.12.11,1.15.74s-.54.7-1,.86c-2,.72-3.42,2.31-5.18,3.39-2.66,1.63-5.15,3.48-8.3,4.19a14.07,14.07,0,0,1-9.49-1,32.77,32.77,0,0,1-7.61-5.32,6,6,0,0,0-1.89-1.08c-.58-.23-1.09-.65-1.06-1.23s.71-.43,1.13-.57l8.09-2.72A8.85,8.85,0,0,1,118.35,145.93Zm4.9,6.94a1.51,1.51,0,0,0-1.44.18c-.25.14-.63.26-.61.62s.45.34.72.42a13.9,13.9,0,0,1,3.07.85c1.5.81,2.54.05,3.67-.65.36-.22.6-.47.43-.93s-.27-.69-.77-.71c-.84,0-1.68-.13-2.51-.24S124,152.81,123.25,152.87Z"/><path class="cls-3" d="M230.79,227.43c-1.76-4.63-9.94-12.22-16.3-13.73a8.66,8.66,0,0,1-1.61-2.39c-1.76-3.66-4.92-5.61-8.4-7.36-4.16-2.09-8.65-2.89-13.06-4-1.93-.51-3.92,0-5.88-.1-.76,0-1.25-.19-1.48-.95a20,20,0,0,1-1-3.53,5,5,0,0,1,.73-2.53,25.09,25.09,0,0,0,1.82-6.75,5.16,5.16,0,0,0-.74-3.33,12.18,12.18,0,0,0-8.32-6.47,91.79,91.79,0,0,0-9.43-1.57c-3.79-.51-7.65-.57-11.48-.8a29.87,29.87,0,0,0-4-.24,1.23,1.23,0,0,1-.67-.12c-1.37-.64-1.58-.57-1.84.85-.54,2.95-1.24,5.87-1.58,8.86a10.72,10.72,0,0,0,.62,4.89,22.32,22.32,0,0,1,.77,4.61,27.47,27.47,0,0,1,.38,5.25,28.61,28.61,0,0,1-.09,4.72,3.22,3.22,0,0,1-.86,2c-.75.65-.64,1.68-1.12,2.46a14.71,14.71,0,0,0-2.17,5.39c-.4,2.59-2.5,2.89-4.06,3.9-1.76,1.14-3.6,2.18-5.27,3.44-2,1.5-4.37,2.07-6.61,3a42.6,42.6,0,0,1-12,3,20.3,20.3,0,0,1-9.55-1.11,12.63,12.63,0,0,1-2.61-2c-1.76-1.26-3.32-2.8-5.16-4a7.82,7.82,0,0,0-2-1.2c-1.31-.39-1.3-1.67-1.67-2.62-.82-2.12-1.65-4.24-2.49-6.34a28,28,0,0,0-1.23-2.52c-.31-.59-.07-.69.46-.59a10.47,10.47,0,0,1,1.12.19c.44.15.94.49,1.27,0a1.62,1.62,0,0,0,.16-1.54,9.75,9.75,0,0,1-.75-2.15,9.18,9.18,0,0,1,.45-4.62c0-.14.11-.34,0-.44-.92-1.69,0-3.49-.32-5.25a9.56,9.56,0,0,1,.39-5.38.87.87,0,0,0-.46-1.26.68.68,0,0,1-.42-.93c1.12-4.28.38-8.59.3-12.89,0-.45-.22-1,.45-1.28s1,.1,1.49.51c1.44,1.31,2.63,2.9,4.39,3.85a3.88,3.88,0,0,1,1.27,1.31,30.8,30.8,0,0,0,4.9,5c1.53,1.39,3.37,1.77,5.2,2.35a6.82,6.82,0,0,1,2.57,2.07,9.65,9.65,0,0,0,3.48,2.79,1.24,1.24,0,0,0,1.21,0,2.26,2.26,0,0,1,2.85.49,1.06,1.06,0,0,0,1.34.47,6.51,6.51,0,0,1,2.49.16,3.19,3.19,0,0,0,2.28-.57c.88-.59,2.1-.74,2.62-1.84a1.25,1.25,0,0,1,.71-.56c1.81-.69,3.38-1.89,5.3-2.31.23-.05.49-.07.57-.33.4-1.16,2.09-1.26,2.18-2.67,2.14-.8,2.76-3,4.07-4.53.48-.56,1-1.09,1.47-1.62,1-1.11,2.14-2.17,3.2-3.27.18-.19.58-.4.29-.75a.63.63,0,0,0-.77-.05c-1.72,1-16.11,8-18,9a14.58,14.58,0,0,1-7,1.55,8.91,8.91,0,0,1-2.86-.46,1.32,1.32,0,0,0-.56-.05c-2,.25-22-10.11-23.12-11.81a1.09,1.09,0,0,0-.57-.38,2,2,0,0,1-1.64-1.6c-.21-.8-1.25-1.41-2.1-1.86a1.44,1.44,0,0,1-.79-.88c-.49-1.35-1.54-2.37-2.22-3.62a32,32,0,0,1-3.22-9.31s0-.08,0-.12c-.19-1.77-.18-1.76,1.52-2.24.42-.12,1-.2.88-.84s-.63-.64-1.14-.48c-1,.3-1.47-.22-1.78-1.08a25,25,0,0,1-.73-4.19c-.38-2-.93-4-1.36-5.94a23.09,23.09,0,0,1-.33-9.17c.39-2,1-4.16,2.9-5.47.25-.17.45-.65.85-.22,1.19,1.29,2.86,1.64,4.41,2.08a58.73,58.73,0,0,0,19.25,1.86,9.84,9.84,0,0,0,8-4.59c1.09-1.68,2.22-3.32,3.17-5.08a3.05,3.05,0,0,1,2.83-1.48,2.56,2.56,0,0,1,2.62,1.5c.61,1.41,1.36,2.75,2.05,4.12,1.64,3.25,4.09,5.56,7.75,6.21a37.64,37.64,0,0,0,8.12,1,3.41,3.41,0,0,0,.51-.12,97.21,97.21,0,0,1-10.92-2.52c-.88-.26-1.19-.9-1.72-1.39a11.82,11.82,0,0,1-3.52-7.47c-.36-2.69,1.09-4.62,4.6-5.78a32.07,32.07,0,0,1,13.84-1.11,30.3,30.3,0,0,1,12.3,3.66c2.05,1.21,2.21,1.53,2,3.88a13,13,0,0,1-1.77,6.16,9.41,9.41,0,0,1-8.22,4.39,15.45,15.45,0,0,0-3.78.24c.08.28.34.29.55.29,3.31.07,6.62,0,9.79-1.17a6.74,6.74,0,0,0,3.13-2.47c.18-.27.4-.54.72-.45s.21.46.24.71c.25,2.33.58,4.67.65,7,0,.61.07,1.21.11,2a2.9,2.9,0,0,0,1.4-2.52,46.89,46.89,0,0,1,1.27-8.52c.66.14.82.87,1.44,1a1.49,1.49,0,0,0,.14-1.45,2.44,2.44,0,0,1,.62-2.84c.72-.76.88-2,2.16-2.32.19,0,.06-.34.06-.52.06-3-.14-5.89.15-8.85a10.94,10.94,0,0,0-.55-5.87c-.28-.62.28-1.2.39-1.79s-.15-1.3.07-1.92a.29.29,0,0,0,0-.22,5.31,5.31,0,0,1-1.41-2.79,26.82,26.82,0,0,0-1.19-4.32c-.16-.66-.92-1.3,0-2,0,0,0-.2-.07-.26-.67-.67-.47-1.5-.39-2.29,0-.4.21-.79-.5-.64-.4.09-.45-.3-.54-.6-.14-.47-.31-.92-.48-1.39-.47.23-.13.65-.41.86,0,0-.14,0-.16-.06a11.91,11.91,0,0,1-1-2.59c-.08-.39-.14-1-.58-.16-.36-.21-.9-.21-.93-.81-.06-1.73-1.25-2.84-2.11-4.19-.64-1-1.65-1.61-2.23-2.66a6.21,6.21,0,0,0-3.2-2.78,4.49,4.49,0,0,1,3.33,1.47c.21.21.43.6.73.32s-.12-.47-.3-.69c-.36-.44-.64-1-1-1.37a2.3,2.3,0,0,0-2.27-1c-.89.17-1.75-.76-2.73-.28,0,0-.15-.08-.15-.13-.17-1.16-.89-.61-1.43-.44-.34-.33,0-.51.08-.74s-.16-.69-.34-.52c-1,.85-1.43-.58-2.22-.4-.24,0-.52-.12-.79-.13-.47,0-1.25.48-.78-.7a1.43,1.43,0,0,0-1-1.14c-.74-.1-1.15.07-.91-1.13s-1-1.94-2-2.58a8.1,8.1,0,0,0-4.14-1c-1.69,0-3.25-1-5-.8-.5-1.3-1.51-.13-2.22-.45-.2-.09-.52,0-.67-.1-1.11-.9-2.38-.48-3.61-.55a9.28,9.28,0,0,1-2.51-.31,11,11,0,0,0-5.66,0c-.89.18-2-.3-2.68.67-.12.16-.32-.11-.48-.21a1.39,1.39,0,0,0-1.53.12,57.58,57.58,0,0,1-6.46,3.16c-1.55.74-3.14,1.35-4.73,1.93A28.76,28.76,0,0,1,98.2,65a14.85,14.85,0,0,0-1.55.42c-.37.09-.75.25-1.05-.16a14.9,14.9,0,0,0-8.5,4.45c0,.5-.2.75-.71.71a3,3,0,0,1-.65,1.29c.71,1-.21,1.75-.66,2.17a4.07,4.07,0,0,0-1.3,2c-.13.49-.49.62-.82.85l-.47.76c.43,1.8-.4,3.43-.89,5-.71,2.36-1.42,4.75-2.36,7A18.07,18.07,0,0,1,77.4,93.4c-.92,1.31-1.58,2.76-3.07,3.55,0,1.21-1.18,1.4-1.82,1.67-1,.42-1.57,1.29-2.48,1.76-.5.25-.75,1-1.4,1.32-.2.1-.39.35-.58.35-1.29,0-1.45.5-.71,1.45.6-.09,1.1-.71,1.8-.21.26.18.46-.18.67-.34A6.68,6.68,0,0,1,73,101.48c-.83,1.42-2.11,2.19-3.07,3.21.4.48.77-.12,1.29.2-.7.66-1.11,1.55-2.14,1.79-.32.07-.62.1-.54.54.28.13.57.24.17.62-1.37,1.28-1.75,3.28-3.22,4.5a.86.86,0,0,0-.13.14c1.13,1-.14,1.54-.41,2.29-.16.43-.82.93.11,1.36.19.09.26.89.09,1.16-.49.76-.66,1.74-1.51,2.25l-.46.64.45,1.88c.3-1.66,1.57-2.52,2.07-3.82.08-.19.2-.36.43-.3s.21.29.28.47c.22.64-.28,1.16-.28,1.8.42,0,.82,0,1-.53.13-.34.44-.21.67-.05s.16.41,0,.67c-.4.61-1.29.76-1.45,1.61.28.37.76.09,1.14.27.07.55-.38.68-.72.91s-.43.39-.19.66.42,0,.6-.12.16-.16.25-.23c1.19-1,1.22-1,2,.56.3-1.6.59-3,1.81-4.18-.1,2.78.26,5.56-1.57,7.89a25.48,25.48,0,0,1-1.53,2.25c-.8.84.56.52.72,1.1-1.14.16-1.46,1.29-2.24,1.9s-.23,1.15.08,1.22c1.61.38.58.89.07,1.35a1.06,1.06,0,0,0,.24.15c.39.16.93-.48,1.14,0s-.55.72-.83,1.1c-.66.9-1.81,1.17-2.5,2,0,0-.72.22,0,.49.37.15,0,.33-.21.41s-.66,0-.54.4.55.29.8.19a28.72,28.72,0,0,0,3.4-1.11,3.22,3.22,0,0,1,.62-.11,1.78,1.78,0,0,0-.44,1.67c.19.52-.37.71-.61,1s-.58.77-.06,1c.78.4.61,1.25,1,1.79a.37.37,0,0,1-.08.6c-1,.46-.83,1.5-1.26,2.23-.06.1-.14.28-.1.32.87.94-.08,2.3.77,3.23a.57.57,0,0,1,.1.54c-.3,2.19.35,4.23.87,6.3.32,1.29.66,2.59,1.07,3.82.92,2.76,1.89,5.54,4.6,7.27,1.51,1,3.25,1.52,4.68,2.63.23.18.8.59,1.06,0s-.22-.71-.66-.85a7.59,7.59,0,0,1-3.94-2.28.93.93,0,0,0-.39-.22c-.85-.35-.85-.35-.64-1.42a18.33,18.33,0,0,0,5.45,2.55,3.85,3.85,0,0,0,2,.23c.9-.15,1.43.74,2.13,1.14a24.29,24.29,0,0,0,3,1.48c.31.13.62.25.6.59s-.47.29-.73.29a35.11,35.11,0,0,0-6.55.36A8.43,8.43,0,0,0,77.38,175c-2.5,1.92-5.27,3.44-7.75,5.35-2.81,2.17-5.78,4.33-7,8,0,0,0,.07,0,.1.56,3.19-2.24,5-3.07,7.67a17.76,17.76,0,0,1-.9,2.46c-.78,1.62-2.27,2.09-3.79,2.47a45.85,45.85,0,0,1-9.71,1.07c-.1,0-.21-.08-.31-.12l-2.15.25c-.3.4-.7.31-1.09.21l-.45.09a.76.76,0,0,1-.95.13l-.43.1a8.5,8.5,0,0,1-3.46,1.16c-.37.42-.93.37-1.4.55a3,3,0,0,1-1.81,1.1l-1.07.79c0,.37-.2.59-.61.54a30.44,30.44,0,0,1-8.76,6.46v.39c-3,2.44-5.54,6.38-6.49,12.73-2.76,18.37,0,18.57,0,18.57H230.79S232.36,231.54,230.79,227.43Zm-66.1-103a4.81,4.81,0,0,1,0,2.25A2.93,2.93,0,0,1,164.69,124.44ZM141.83,61.67a.87.87,0,0,1,.62-.7,4.29,4.29,0,0,1,2.67,2.67c0,.22-.1.44-.32.28-.41-.29-.49-.08-.62.26s-.21.56-.54.51-.24-.37-.31-.58a6.34,6.34,0,0,1-.38-1.19c-.07-.38-.06-.66-.61-.57S141.73,62,141.83,61.67ZM99,103a4.28,4.28,0,0,0,2-2.43,5.78,5.78,0,0,1,2-2.28,27.51,27.51,0,0,0,3.56-3.76,2.12,2.12,0,0,0,.29-.74A10.13,10.13,0,0,1,111,88.63a12.09,12.09,0,0,0,3.76-3.74,3.22,3.22,0,0,1,1.52-1.34A4,4,0,0,0,118,81.64a5.13,5.13,0,0,1,2.52-2.51,6.86,6.86,0,0,0,2.57-2.56,2.72,2.72,0,0,1,1.11-1.07,2.7,2.7,0,0,0,1.15-1.07,21.51,21.51,0,0,1,3.81-3.57,3.11,3.11,0,0,1,1.55-.66c1.88-.2,3.66-.94,5.64-.63,1.39.22,2.87-.06,4.13.82a3.5,3.5,0,0,0,2.4.47,4.29,4.29,0,0,1,2.5.76c.67.42.87.93.15,1.56a4.34,4.34,0,0,1,1.54,1.19c1.34,1.43,2.81,2.74,4.24,4.09.45.43.21,1.11.7,1.57,1.81,1.74,2.48,4.1,3.42,6.33.74,1.75.87,3.69,2,5.34a5.19,5.19,0,0,1,.65,2.32,40.38,40.38,0,0,0,1.28,6.66c.6,2.86.69,5.79,1.06,8.68.1.82-.26.7-.94.7a15.54,15.54,0,0,1-3.36-.86,40.62,40.62,0,0,0-6.41-1.32,46.82,46.82,0,0,0-5.58-.62,31.72,31.72,0,0,0-9.69,1.43C130,110,129.58,110.07,127,111c-1.94.67-3.52-.08-5.25-.39-.59-.1-1.12-.47-1.77-.16a.77.77,0,0,1-.78-.07c-1.38-1.2-3.16-1.66-4.77-2.37a38.67,38.67,0,0,0-14-3c-1,0-2-.14-3.3-.22C97.9,104.11,98.24,103.38,99,103ZM86.23,115.28c.35.84.6,1.47.87,2.08.19.46.61,1,1,.66s1.32.12,1.29-1c0-.5.76-1,1.23-1.52.19-.19.42.06.58.22a.7.7,0,0,1,.27.8c-.21.66.65,1.69,1.31,1.55,1.13-.25,2.35-.08,3.37-1,.48-.42,1.39-.32,2.09-.52a10.08,10.08,0,0,1,5,0,8.81,8.81,0,0,0,2.35-.09,8.94,8.94,0,0,1,2.83,0,15.42,15.42,0,0,0,4.22.32c.71,0,1-.41.71-1.18s-1.43-1.58-.27-2.59a2.71,2.71,0,0,0-.66-1c-2-1.68-4.14-3-7-3a17.13,17.13,0,0,0-6.58,1.14,2.89,2.89,0,0,1-2.15.08,2,2,0,0,1-1.12-2.68c.44-1.43,1.55-1.44,2.59-1.49a36.44,36.44,0,0,1,12.13,1.31,21.37,21.37,0,0,1,7.12,3.37,4.56,4.56,0,0,1,1.62,5.54c-.28.71-.52,1.44-.82,2.14a10.07,10.07,0,0,1-5.87,5.39,15,15,0,0,1-5.13.62,42.48,42.48,0,0,1-14.92-2.11,11.36,11.36,0,0,1-4.89-3A5.23,5.23,0,0,1,86.23,115.28ZM103.17,110c0-.38.34-.33.6-.33h.92a10.14,10.14,0,0,1,6.07,2.1c.19.14.39.33.23.57s-.32.08-.5,0c-.9-.46-1.64-1.08-2.89-.9-.61.09-1.61-.61-2.48-.84a10.18,10.18,0,0,0-1.33-.29C103.52,110.3,103.18,110.42,103.17,110Zm8.53,3.1c0-.11.19-.21.31-.26s.15.09.22.13c0,.21-.11.32-.26.35S111.65,113.31,111.7,113.14ZM65.33,116s-.06,0-.06-.07,0,0,.07-.07l.06.07A.46.46,0,0,1,65.33,116Zm2,5.8-.07-.12a.18.18,0,0,1,.1,0s0,.05,0,.08Zm.86.14c0-.77.67-1.19,1.14-1.81C69.64,121.19,68.76,121.45,68.2,121.9Zm1-2.72c-.68-1.57-.58-1.9.8-3C70.07,117.2,69.43,118,69.25,119.18ZM71.09,108c-.84,1-1.71,2.05-2.48,3.14-.44.63-1.3.24-1.59.89-.41-.11-.43-.33-.27-.54a24.42,24.42,0,0,1,3.82-4c.17-.15.41-.28.61-.06S71.25,107.79,71.09,108Zm3.28,58.44,0-.06,0,.07Zm3,0c-.57-.41-1.1-.86-1.71-1.34.85-.26,2.17.43,2.23,1.1C78,166.68,77.62,166.62,77.39,166.46ZM83,165.35c.62-.21.92.39,1.21.62,1,.75,2.23,0,3.09.8a4.1,4.1,0,0,0,.37.27C86.24,167.61,84,166.76,83,165.35Zm2.89,5c-.27-.1-.42-.94-.36-1.41s.65-.32,1-.26a8.43,8.43,0,0,0,2.74-.26.75.75,0,0,0,.69-.67c0-.41-.43-.36-.61-.55-.74-.78-1.91-1-2.83-2.06,1.95.51,3.65.56,5.2,1.32a3.83,3.83,0,0,1,1.77,2.43c.21.62.21,1.45-.91,1.4a.93.93,0,0,0-.62.27c-.91.93-2,.81-3.21.89S86.84,170.66,85.89,170.32Z"/><path class="cls-3" d="M134.72,117.18a8.37,8.37,0,0,0,4,0,1.08,1.08,0,0,1,.79,0c1.59,1,3.36.55,5,.7a1.59,1.59,0,0,0,1.62-.63c.31-.44.78-.75,1.29-.38,1.47,1.07,3.44.64,4.91,1.72.22.17.78.5,1,.07s-.27-.64-.55-.87-.66-.73,0-.92,1.16-.62,1.13-1.26a2.14,2.14,0,0,0-1.34-2,16.71,16.71,0,0,1-2.75-1.68c-.5-.3-.81-1-1.29-1-2-.34-3.83-1.4-5.75-1a11.07,11.07,0,0,0-7.74,2.61c-.53.39-1.4.85-1,1.82a1.66,1.66,0,0,1-.07,1.41C133.71,116.37,133.82,117.07,134.72,117.18Z"/><path class="cls-3" d="M129.73,139.81a5.75,5.75,0,0,1,1.23.27,1.91,1.91,0,0,0,2-.5,12.33,12.33,0,0,0,1.36-2.2.35.35,0,0,0,0-.42c-.81-1.33-4-2.38-5.36-1.67a6.26,6.26,0,0,0-3,2.58c-.19.37-.39.52-.64.1-.72-1.16-2.2-.64-3.1-1.42,0,0-.34.16-.46.29-.72.82-1.17.4-1.54-.33a5.84,5.84,0,0,0-1.9-2.14,1.76,1.76,0,0,0-2.13-.11A5.5,5.5,0,0,0,113.9,136c-.64,1.06-1.67.48-2.63,0,.22.57-.11,1.25.51,1.62,1.41.84,2.67,2,4.52,1.74a7.31,7.31,0,0,1,1.62,0,3.63,3.63,0,0,1,3,1.32c.45.62,3.14,1,3.75.49a8,8,0,0,1,2.84-1.65.36.36,0,0,0,.2-.25c0-.19-.11-.28-.28-.26s-.59.07-.51-.37a.64.64,0,0,1,.61-.45c.34,0,.7,0,1-.09.78-.15,1.1.1.69.84S129.19,139.8,129.73,139.81Z"/><path class="cls-3" d="M160.12,112.86c-.05,1.79.7,4.71,1.33,5.33C162.11,116,161.6,113.82,160.12,112.86Z"/></g></g></g></svg>